<svg width="42" height="42" viewBox="0 0 42 42" fill="none" xmlns="http://www.w3.org/2000/svg">
<mask id="path-1-inside-1" fill="white">
<path fill-rule="evenodd" clip-rule="evenodd" d="M18.9529 0.785156C9.01176 0.785156 0.952881 8.84403 0.952881 18.7852V23.7852C0.952881 33.7263 9.01176 41.7852 18.9529 41.7852H23.9529C33.894 41.7852 41.9529 33.7263 41.9529 23.7852V18.7852C41.9529 8.84403 33.894 0.785156 23.9529 0.785156H18.9529ZM31.6126 31.4462V31.447H27.5444V25.0551C27.5444 23.5319 27.5133 21.5785 25.4247 21.5785C23.305 21.5785 22.9805 23.2336 22.9805 24.9453V31.4462H18.9082V18.3174H22.8191V20.1077H22.8764C23.4197 19.0761 24.7503 17.988 26.7332 17.988C30.8579 17.988 31.6175 20.7059 31.6175 24.2341V31.4462H31.6126ZM12.2774 18.3178H16.3546V31.4466H12.2774V18.3178ZM11.9529 14.1466C11.9529 12.843 13.0107 11.7852 14.3143 11.7852C15.6171 11.7852 16.6749 12.843 16.6757 14.1466C16.6757 15.4502 15.6179 16.5301 14.3143 16.5301C13.0107 16.5301 11.9529 15.4502 11.9529 14.1466Z"/>
</mask>
<path d="M31.6126 31.447V33.447H33.6126V31.447H31.6126ZM31.6126 31.4462V29.4462H29.6126V31.4462H31.6126ZM27.5444 31.447H25.5444V33.447H27.5444V31.447ZM22.9805 31.4462V33.4462H24.9805V31.4462H22.9805ZM18.9082 31.4462H16.9082V33.4462H18.9082V31.4462ZM18.9082 18.3174V16.3174H16.9082V18.3174H18.9082ZM22.8191 18.3174H24.8191V16.3174H22.8191V18.3174ZM22.8191 20.1077H20.8191V22.1077H22.8191V20.1077ZM22.8764 20.1077V22.1077H24.0836L24.6461 21.0396L22.8764 20.1077ZM31.6175 31.4462V33.4462H33.6175V31.4462H31.6175ZM16.3546 18.3178H18.3546V16.3178H16.3546V18.3178ZM12.2774 18.3178V16.3178H10.2774V18.3178H12.2774ZM16.3546 31.4466V33.4466H18.3546V31.4466H16.3546ZM12.2774 31.4466H10.2774V33.4466H12.2774V31.4466ZM16.6757 14.1466H18.6757V14.1453L16.6757 14.1466ZM2.95288 18.7852C2.95288 9.9486 10.1163 2.78516 18.9529 2.78516V-1.21484C7.90719 -1.21484 -1.04712 7.73946 -1.04712 18.7852H2.95288ZM2.95288 23.7852V18.7852H-1.04712V23.7852H2.95288ZM18.9529 39.7852C10.1163 39.7852 2.95288 32.6217 2.95288 23.7852H-1.04712C-1.04712 34.8308 7.90719 43.7852 18.9529 43.7852V39.7852ZM23.9529 39.7852H18.9529V43.7852H23.9529V39.7852ZM39.9529 23.7852C39.9529 32.6217 32.7894 39.7852 23.9529 39.7852V43.7852C34.9986 43.7852 43.9529 34.8308 43.9529 23.7852H39.9529ZM39.9529 18.7852V23.7852H43.9529V18.7852H39.9529ZM23.9529 2.78516C32.7894 2.78516 39.9529 9.9486 39.9529 18.7852H43.9529C43.9529 7.73946 34.9986 -1.21484 23.9529 -1.21484V2.78516ZM18.9529 2.78516H23.9529V-1.21484H18.9529V2.78516ZM33.6126 31.447V31.4462H29.6126V31.447H33.6126ZM27.5444 33.447H31.6126V29.447H27.5444V33.447ZM25.5444 25.0551V31.447H29.5444V25.0551H25.5444ZM25.4247 23.5785C25.6276 23.5785 25.5987 23.6217 25.4927 23.5478C25.391 23.4769 25.3798 23.4101 25.4083 23.4821C25.4438 23.5717 25.4879 23.7467 25.5149 24.0475C25.5414 24.3445 25.5444 24.6689 25.5444 25.0551H29.5444C29.5444 24.3806 29.5622 23.1073 29.1272 22.009C28.8869 21.4023 28.4763 20.752 27.7813 20.2672C27.0821 19.7794 26.2661 19.5785 25.4247 19.5785V23.5785ZM24.9805 24.9453C24.9805 24.5718 24.9989 24.2641 25.0391 24.0141C25.0797 23.7605 25.1325 23.634 25.1592 23.5856C25.1743 23.5582 25.1591 23.5904 25.1174 23.6135C25.0872 23.6302 25.1548 23.5785 25.4247 23.5785V19.5785C24.6348 19.5785 23.8668 19.7337 23.1796 20.1142C22.4809 20.5011 21.9872 21.054 21.6562 21.6544C21.0462 22.761 20.9805 24.0529 20.9805 24.9453H24.9805ZM24.9805 31.4462V24.9453H20.9805V31.4462H24.9805ZM18.9082 33.4462H22.9805V29.4462H18.9082V33.4462ZM16.9082 18.3174V31.4462H20.9082V18.3174H16.9082ZM22.8191 16.3174H18.9082V20.3174H22.8191V16.3174ZM24.8191 20.1077V18.3174H20.8191V20.1077H24.8191ZM22.8764 18.1077H22.8191V22.1077H22.8764V18.1077ZM26.7332 15.988C23.9747 15.988 21.9802 17.5173 21.1068 19.1758L24.6461 21.0396C24.8592 20.6349 25.526 19.988 26.7332 19.988V15.988ZM33.6175 24.2341C33.6175 22.4264 33.4452 20.3592 32.4146 18.7223C31.2506 16.8735 29.2893 15.988 26.7332 15.988V19.988C28.3018 19.988 28.7827 20.4614 29.0296 20.8536C29.41 21.4577 29.6175 22.5136 29.6175 24.2341H33.6175ZM33.6175 31.4462V24.2341H29.6175V31.4462H33.6175ZM31.6126 33.4462H31.6175V29.4462H31.6126V33.4462ZM16.3546 16.3178H12.2774V20.3178H16.3546V16.3178ZM18.3546 31.4466V18.3178H14.3546V31.4466H18.3546ZM12.2774 33.4466H16.3546V29.4466H12.2774V33.4466ZM10.2774 18.3178V31.4466H14.2774V18.3178H10.2774ZM14.3143 9.78516C11.9061 9.78516 9.95288 11.7384 9.95288 14.1466H13.9529C13.9529 13.9475 14.1153 13.7852 14.3143 13.7852V9.78516ZM18.6757 14.1453C18.6742 11.7388 16.7224 9.78516 14.3143 9.78516V13.7852C14.5118 13.7852 14.6756 13.9471 14.6757 14.1478L18.6757 14.1453ZM14.3143 18.5301C16.7467 18.5301 18.6757 16.5304 18.6757 14.1466H14.6757C14.6757 14.3699 14.4892 14.5301 14.3143 14.5301V18.5301ZM9.95288 14.1466C9.95288 16.5304 11.882 18.5301 14.3143 18.5301V14.5301C14.1394 14.5301 13.9529 14.3699 13.9529 14.1466H9.95288Z" fill="white" mask="url(#path-1-inside-1)"/>
</svg>
