<svg width="42" height="42" viewBox="0 0 42 42" fill="none" xmlns="http://www.w3.org/2000/svg">
<mask id="path-1-inside-1" fill="white">
<path fill-rule="evenodd" clip-rule="evenodd" d="M18.9529 0.785156C9.01176 0.785156 0.952881 8.84403 0.952881 18.7852V23.7852C0.952881 33.7263 9.01176 41.7852 18.9529 41.7852H23.9529C33.894 41.7852 41.9529 33.7263 41.9529 23.7852V18.7852C41.9529 8.84403 33.894 0.785156 23.9529 0.785156H18.9529ZM30.3603 15.6314C31.2733 15.5213 32.1437 15.277 32.9529 14.9157C32.3479 15.8273 31.5827 16.6274 30.7006 17.2677C30.7096 17.4629 30.7137 17.6588 30.7137 17.856C30.7137 23.8606 26.1741 30.7852 17.8719 30.7852C15.3226 30.7852 12.9501 30.0328 10.9529 28.7439C11.3063 28.7855 11.6651 28.8069 12.0295 28.8069C14.1443 28.8069 16.0906 28.0808 17.6354 26.8619C15.6602 26.8252 13.993 25.5115 13.4189 23.7063C13.6946 23.7589 13.9772 23.7873 14.268 23.7873C14.6798 23.7873 15.0786 23.7319 15.4574 23.6281C13.3921 23.2107 11.8363 21.3744 11.8363 19.1725C11.8363 19.1532 11.8363 19.1345 11.837 19.1151C12.4454 19.4556 13.1412 19.6598 13.8809 19.6834C12.6703 18.8687 11.8734 17.4774 11.8734 15.9013C11.8734 15.0686 12.0962 14.2879 12.4846 13.6165C14.7108 16.3658 18.0362 18.1751 21.7879 18.3648C21.7109 18.0318 21.671 17.6851 21.671 17.3293C21.671 14.8195 23.6916 12.7852 26.1844 12.7852C27.4824 12.7852 28.6553 13.3368 29.4789 14.22C30.5068 14.0158 31.4734 13.6379 32.3451 13.1174C32.0083 14.1785 31.2926 15.0686 30.3603 15.6314Z"/>
</mask>
<path d="M32.9529 14.9157L34.6193 16.0216L38.43 10.2797L32.1374 13.0895L32.9529 14.9157ZM30.3603 15.6314L29.3268 13.9191L30.5997 17.617L30.3603 15.6314ZM30.7006 17.2677L29.5258 15.6491L28.6534 16.2823L28.7027 17.3592L30.7006 17.2677ZM10.9529 28.7439L11.1863 26.7576L9.86844 30.4244L10.9529 28.7439ZM17.6354 26.8619L18.8743 28.432L23.2667 24.9662L17.6725 24.8623L17.6354 26.8619ZM13.4189 23.7063L13.7938 21.7417L10.4954 21.1123L11.513 24.3124L13.4189 23.7063ZM15.4574 23.6281L15.9861 25.5569L15.8536 21.6677L15.4574 23.6281ZM11.837 19.1151L12.8138 17.3699L9.95445 15.7694L9.83826 19.0442L11.837 19.1151ZM13.8809 19.6834L13.8173 21.6824L20.7623 21.9033L14.9975 18.0241L13.8809 19.6834ZM12.4846 13.6165L14.039 12.3579L12.2094 10.0983L10.7535 12.6149L12.4846 13.6165ZM21.7879 18.3648L21.6869 20.3622L24.3336 20.496L23.7364 17.9141L21.7879 18.3648ZM29.4789 14.22L28.0162 15.584L28.776 16.3988L29.8687 16.1817L29.4789 14.22ZM32.3451 13.1174L34.2514 13.7226L35.8468 8.69717L31.3198 11.4002L32.3451 13.1174ZM2.95288 18.7852C2.95288 9.9486 10.1163 2.78516 18.9529 2.78516V-1.21484C7.90719 -1.21484 -1.04712 7.73946 -1.04712 18.7852H2.95288ZM2.95288 23.7852V18.7852H-1.04712V23.7852H2.95288ZM18.9529 39.7852C10.1163 39.7852 2.95288 32.6217 2.95288 23.7852H-1.04712C-1.04712 34.8308 7.90719 43.7852 18.9529 43.7852V39.7852ZM23.9529 39.7852H18.9529V43.7852H23.9529V39.7852ZM39.9529 23.7852C39.9529 32.6217 32.7894 39.7852 23.9529 39.7852V43.7852C34.9986 43.7852 43.9529 34.8308 43.9529 23.7852H39.9529ZM39.9529 18.7852V23.7852H43.9529V18.7852H39.9529ZM23.9529 2.78516C32.7894 2.78516 39.9529 9.9486 39.9529 18.7852H43.9529C43.9529 7.73946 34.9986 -1.21484 23.9529 -1.21484V2.78516ZM18.9529 2.78516H23.9529V-1.21484H18.9529V2.78516ZM32.1374 13.0895C31.51 13.3696 30.8337 13.5598 30.121 13.6458L30.5997 17.617C31.7129 17.4828 32.7774 17.1844 33.7683 16.7419L32.1374 13.0895ZM31.8755 18.8862C32.9525 18.1044 33.8836 17.1301 34.6193 16.0216L31.2865 13.8097C30.8121 14.5244 30.2128 15.1504 29.5258 15.6491L31.8755 18.8862ZM32.7137 17.856C32.7137 17.6309 32.709 17.4044 32.6985 17.1762L28.7027 17.3592C28.7102 17.5214 28.7137 17.6866 28.7137 17.856H32.7137ZM17.8719 32.7852C27.5203 32.7852 32.7137 24.7071 32.7137 17.856H28.7137C28.7137 23.0142 24.828 28.7852 17.8719 28.7852V32.7852ZM9.86844 30.4244C12.1758 31.9134 14.9227 32.7852 17.8719 32.7852V28.7852C15.7225 28.7852 13.7243 28.1521 12.0373 27.0635L9.86844 30.4244ZM12.0295 26.8069C11.7438 26.8069 11.4629 26.7901 11.1863 26.7576L10.7194 30.7303C11.1496 30.7808 11.5864 30.8069 12.0295 30.8069V26.8069ZM16.3965 25.2918C15.1913 26.2428 13.6781 26.8069 12.0295 26.8069V30.8069C14.6104 30.8069 16.9898 29.9189 18.8743 28.432L16.3965 25.2918ZM11.513 24.3124C12.338 26.9067 14.7368 28.8084 17.5982 28.8616L17.6725 24.8623C16.5836 24.842 15.648 24.1163 15.3249 23.1002L11.513 24.3124ZM14.268 21.7873C14.1085 21.7873 13.9514 21.7718 13.7938 21.7417L13.0441 25.6708C13.4378 25.746 13.8459 25.7873 14.268 25.7873V21.7873ZM14.9287 21.6992C14.7207 21.7562 14.4998 21.7873 14.268 21.7873V25.7873C14.8599 25.7873 15.4364 25.7076 15.9861 25.5569L14.9287 21.6992ZM9.83632 19.1725C9.83632 22.3358 12.0724 24.9844 15.0612 25.5884L15.8536 21.6677C14.7119 21.437 13.8363 20.4129 13.8363 19.1725H9.83632ZM9.83826 19.0442C9.83612 19.1047 9.83632 19.1584 9.83632 19.1725H13.8363C13.8363 19.1673 13.8363 19.1648 13.8363 19.1626C13.8363 19.1607 13.8363 19.1607 13.8363 19.1619C13.8363 19.1642 13.8362 19.1731 13.8357 19.186L9.83826 19.0442ZM13.9445 17.6844C13.5354 17.6714 13.1517 17.559 12.8138 17.3699L10.8602 20.8603C11.7392 21.3523 12.747 21.6483 13.8173 21.6824L13.9445 17.6844ZM9.87344 15.9013C9.87344 18.1655 11.0204 20.1691 12.7644 21.3427L14.9975 18.0241C14.3202 17.5683 13.8734 16.7893 13.8734 15.9013H9.87344ZM10.7535 12.6149C10.1936 13.5827 9.87344 14.7078 9.87344 15.9013H13.8734C13.8734 15.4295 13.9988 14.9931 14.2158 14.618L10.7535 12.6149ZM21.8889 16.3673C18.7294 16.2076 15.9236 14.6854 14.039 12.3579L10.9303 14.875C13.498 18.0462 17.343 20.1426 21.6869 20.3622L21.8889 16.3673ZM19.671 17.3293C19.671 17.8348 19.7277 18.3328 19.8393 18.8154L23.7364 17.9141C23.6941 17.7308 23.671 17.5353 23.671 17.3293H19.671ZM26.1844 10.7852C22.5742 10.7852 19.671 13.7277 19.671 17.3293H23.671C23.671 15.9112 24.8089 14.7852 26.1844 14.7852V10.7852ZM30.9416 12.856C29.7563 11.5849 28.0609 10.7852 26.1844 10.7852V14.7852C26.904 14.7852 27.5543 15.0887 28.0162 15.584L30.9416 12.856ZM31.3198 11.4002C30.6411 11.8055 29.889 12.0995 29.0892 12.2584L29.8687 16.1817C31.1245 15.9322 32.3057 15.4703 33.3704 14.8346L31.3198 11.4002ZM31.3939 17.3436C32.7342 16.5346 33.7649 15.2547 34.2514 13.7226L30.4389 12.5122C30.2516 13.1023 29.851 13.6027 29.3268 13.9191L31.3939 17.3436Z" fill="white" mask="url(#path-1-inside-1)"/>
</svg>
