<svg width="42" height="42" viewBox="0 0 42 42" fill="none" xmlns="http://www.w3.org/2000/svg">
<mask id="path-1-inside-1" fill="white">
<path fill-rule="evenodd" clip-rule="evenodd" d="M18.9529 0.785156C9.01176 0.785156 0.952881 8.84403 0.952881 18.7852V23.7852C0.952881 33.7263 9.01176 41.7852 18.9529 41.7852H23.9529C33.894 41.7852 41.9529 33.7263 41.9529 23.7852V18.7852C41.9529 8.84403 33.894 0.785156 23.9529 0.785156H18.9529ZM32.9842 16.2496C32.7249 15.286 31.9651 14.5264 31.0016 14.2669C29.2413 13.7852 22.2001 13.7852 22.2001 13.7852C22.2001 13.7852 15.159 13.7852 13.3987 14.2485C12.4537 14.5079 11.6754 15.2862 11.4161 16.2496C10.9529 18.0098 10.9529 21.6602 10.9529 21.6602C10.9529 21.6602 10.9529 25.3289 11.4161 27.0707C11.6756 28.0342 12.4352 28.7939 13.3988 29.0534C15.1775 29.5352 22.2002 29.5352 22.2002 29.5352C22.2002 29.5352 29.2413 29.5352 31.0016 29.0718C31.9653 28.8125 32.7249 28.0527 32.9844 27.0892C33.4476 25.3289 33.4476 21.6787 33.4476 21.6787C33.4476 21.6787 33.4661 18.0098 32.9842 16.2496ZM19.958 25.0318L25.8132 21.6594L19.958 18.2871V25.0318Z"/>
</mask>
<path d="M31.0016 14.2669L30.4737 16.196L30.4815 16.1981L31.0016 14.2669ZM32.9842 16.2496L31.0529 16.7694L31.0552 16.7778L32.9842 16.2496ZM13.3987 14.2485L12.8895 12.3144L12.8794 12.3171L12.8694 12.3198L13.3987 14.2485ZM11.4161 16.2496L9.48478 15.7298L9.48194 15.7406L11.4161 16.2496ZM11.4161 27.0707L9.48326 27.5847L9.4849 27.5908L11.4161 27.0707ZM13.3988 29.0534L13.9217 27.123L13.9189 27.1222L13.3988 29.0534ZM31.0016 29.0718L31.5108 31.0059L31.5213 31.0031L31.0016 29.0718ZM32.9844 27.0892L34.9156 27.6093L34.9185 27.5982L32.9844 27.0892ZM33.4476 21.6787L31.4476 21.6686V21.6787H33.4476ZM25.8132 21.6594L26.8114 23.3925L29.8205 21.6594L26.8114 19.9263L25.8132 21.6594ZM19.958 25.0318H17.958V28.4917L20.9562 26.7649L19.958 25.0318ZM19.958 18.2871L20.9562 16.554L17.958 14.8271V18.2871H19.958ZM2.95288 18.7852C2.95288 9.9486 10.1163 2.78516 18.9529 2.78516V-1.21484C7.90719 -1.21484 -1.04712 7.73946 -1.04712 18.7852H2.95288ZM2.95288 23.7852V18.7852H-1.04712V23.7852H2.95288ZM18.9529 39.7852C10.1163 39.7852 2.95288 32.6217 2.95288 23.7852H-1.04712C-1.04712 34.8308 7.90719 43.7852 18.9529 43.7852V39.7852ZM23.9529 39.7852H18.9529V43.7852H23.9529V39.7852ZM39.9529 23.7852C39.9529 32.6217 32.7894 39.7852 23.9529 39.7852V43.7852C34.9986 43.7852 43.9529 34.8308 43.9529 23.7852H39.9529ZM39.9529 18.7852V23.7852H43.9529V18.7852H39.9529ZM23.9529 2.78516C32.7894 2.78516 39.9529 9.9486 39.9529 18.7852H43.9529C43.9529 7.73946 34.9986 -1.21484 23.9529 -1.21484V2.78516ZM18.9529 2.78516H23.9529V-1.21484H18.9529V2.78516ZM30.4815 16.1981C30.757 16.2723 30.9789 16.4944 31.0529 16.7693L34.9155 15.7299C34.4709 14.0776 33.1732 12.7805 31.5218 12.3357L30.4815 16.1981ZM22.2001 13.7852C22.2001 15.7852 22.2 15.7852 22.2 15.7852C22.2 15.7852 22.2 15.7852 22.2001 15.7852C22.2002 15.7852 22.2005 15.7852 22.2008 15.7852C22.2015 15.7852 22.2026 15.7852 22.2041 15.7852C22.2071 15.7852 22.2118 15.7852 22.2181 15.7852C22.2307 15.7852 22.2498 15.7852 22.275 15.7853C22.3255 15.7854 22.4003 15.7856 22.4964 15.7861C22.6889 15.787 22.9667 15.7889 23.3059 15.7926C23.9851 15.8 24.9066 15.8149 25.8799 15.8444C26.8566 15.8741 27.869 15.9182 28.7349 15.9828C29.6579 16.0517 30.2451 16.1334 30.4737 16.196L31.5296 12.3378C30.878 12.1595 29.925 12.0605 29.0326 11.9939C28.0832 11.9231 27.0053 11.8768 26.0015 11.8463C24.9945 11.8157 24.0457 11.8004 23.3497 11.7928C23.0012 11.789 22.7152 11.7871 22.5157 11.7861C22.4159 11.7856 22.3377 11.7854 22.2841 11.7853C22.2573 11.7852 22.2366 11.7852 22.2225 11.7852C22.2154 11.7852 22.21 11.7852 22.2063 11.7852C22.2044 11.7852 22.2029 11.7852 22.2019 11.7852C22.2014 11.7852 22.201 11.7852 22.2006 11.7852C22.2005 11.7852 22.2003 11.7852 22.2003 11.7852C22.2002 11.7852 22.2001 11.7852 22.2001 13.7852ZM13.9078 16.1826C14.1434 16.1206 14.737 16.0418 15.6597 15.9755C16.5272 15.9132 17.5408 15.8708 18.5179 15.8422C19.4919 15.8137 20.4139 15.7994 21.0934 15.7923C21.4328 15.7887 21.7108 15.7869 21.9033 15.786C21.9996 15.7856 22.0744 15.7854 22.1249 15.7853C22.1501 15.7852 22.1693 15.7852 22.1819 15.7852C22.1882 15.7852 22.193 15.7852 22.196 15.7852C22.1975 15.7852 22.1986 15.7852 22.1993 15.7852C22.1996 15.7852 22.1999 15.7852 22.2 15.7852C22.2001 15.7852 22.2001 15.7852 22.2001 15.7852C22.2001 15.7852 22.2001 15.7852 22.2001 13.7852C22.2001 11.7852 22.2 11.7852 22.1998 11.7852C22.1998 11.7852 22.1996 11.7852 22.1995 11.7852C22.1992 11.7852 22.1988 11.7852 22.1983 11.7852C22.1972 11.7852 22.1958 11.7852 22.1939 11.7852C22.1902 11.7852 22.1847 11.7852 22.1777 11.7852C22.1636 11.7852 22.143 11.7852 22.1162 11.7853C22.0627 11.7854 21.9845 11.7856 21.8848 11.7861C21.6855 11.787 21.3996 11.7888 21.0513 11.7925C20.3556 11.7998 19.4074 11.8145 18.401 11.8439C17.3978 11.8733 16.3211 11.9177 15.3733 11.9858C14.4807 12.0499 13.5341 12.1448 12.8895 12.3144L13.9078 16.1826ZM13.3474 16.7694C13.423 16.4884 13.6697 16.2481 13.9279 16.1772L12.8694 12.3198C11.2377 12.7676 9.9278 14.0839 9.48481 15.7298L13.3474 16.7694ZM10.9529 21.6602C12.9529 21.6602 12.9529 21.6603 12.9529 21.6604C12.9529 21.6604 12.9529 21.6605 12.9529 21.6605C12.9529 21.6605 12.9529 21.6605 12.9529 21.6605C12.9529 21.6604 12.9529 21.6601 12.9529 21.6595C12.9529 21.6584 12.9529 21.6565 12.9529 21.6537C12.9529 21.6481 12.9529 21.6392 12.953 21.6271C12.9531 21.6028 12.9533 21.5658 12.9537 21.5174C12.9546 21.4205 12.9563 21.2783 12.9597 21.1014C12.9667 20.7468 12.9806 20.2572 13.0082 19.7171C13.0664 18.5783 13.1774 17.4155 13.3502 16.7586L9.48194 15.7406C9.1916 16.8439 9.07098 18.3863 9.01339 19.5128C8.9831 20.1053 8.96803 20.6383 8.9605 21.0231C8.95673 21.216 8.95482 21.3727 8.95386 21.4823C8.95338 21.5372 8.95314 21.5803 8.95301 21.6104C8.95295 21.6254 8.95292 21.6372 8.9529 21.6456C8.95289 21.6497 8.95289 21.6531 8.95288 21.6555C8.95288 21.6567 8.95288 21.6577 8.95288 21.6585C8.95288 21.6589 8.95288 21.6592 8.95288 21.6595C8.95288 21.6596 8.95288 21.6598 8.95288 21.6599C8.95288 21.66 8.95288 21.6602 10.9529 21.6602ZM13.3489 26.5567C13.1776 25.9125 13.0665 24.7534 13.0082 23.6103C12.9806 23.0691 12.9667 22.5778 12.9597 22.2216C12.9563 22.044 12.9546 21.9011 12.9537 21.8038C12.9533 21.7551 12.9531 21.7179 12.953 21.6935C12.9529 21.6813 12.9529 21.6723 12.9529 21.6667C12.9529 21.6639 12.9529 21.6619 12.9529 21.6608C12.9529 21.6603 12.9529 21.6599 12.9529 21.6598C12.9529 21.6598 12.9529 21.6598 12.9529 21.6598C12.9529 21.6599 12.9529 21.6599 12.9529 21.66C12.9529 21.66 12.9529 21.6602 10.9529 21.6602C8.95288 21.6602 8.95288 21.6603 8.95288 21.6604C8.95288 21.6605 8.95288 21.6607 8.95288 21.6608C8.95288 21.6611 8.95288 21.6614 8.95288 21.6618C8.95288 21.6626 8.95288 21.6636 8.95288 21.6648C8.95289 21.6673 8.95289 21.6706 8.9529 21.6748C8.95292 21.6831 8.95295 21.695 8.95301 21.7101C8.95314 21.7403 8.95338 21.7836 8.95386 21.8386C8.95482 21.9487 8.95672 22.1061 8.9605 22.2996C8.96803 22.6858 8.98309 23.2205 9.01338 23.8142C9.07086 24.9409 9.19137 26.4871 9.48326 27.5847L13.3489 26.5567ZM13.9189 27.1222C13.6436 27.0481 13.4215 26.826 13.3473 26.5506L9.4849 27.5908C9.9297 29.2423 11.2268 30.5398 12.8788 30.9846L13.9189 27.1222ZM22.2002 29.5352C22.2002 27.5352 22.2003 27.5352 22.2003 27.5352C22.2003 27.5352 22.2002 27.5352 22.2002 27.5352C22.2001 27.5352 22.1998 27.5352 22.1995 27.5352C22.1988 27.5352 22.1977 27.5352 22.1962 27.5352C22.1932 27.5352 22.1885 27.5352 22.1822 27.5351C22.1696 27.5351 22.1506 27.5351 22.1255 27.535C22.0752 27.5349 22.0006 27.5347 21.9046 27.5342C21.7127 27.5333 21.4355 27.5315 21.0971 27.5278C20.4193 27.5203 19.4996 27.5055 18.5274 27.4759C17.552 27.4462 16.5401 27.4021 15.6731 27.3375C14.7508 27.2687 14.158 27.187 13.9217 27.123L12.876 30.9839C13.5289 31.1607 14.481 31.2597 15.3757 31.3264C16.3258 31.3972 17.4031 31.4435 18.4057 31.474C19.4115 31.5046 20.3586 31.5199 21.0532 31.5275C21.4009 31.5313 21.6863 31.5332 21.8854 31.5342C21.9849 31.5347 22.0629 31.5349 22.1164 31.535C22.1431 31.5351 22.1637 31.5351 22.1778 31.5351C22.1849 31.5351 22.1903 31.5352 22.194 31.5352C22.1959 31.5352 22.1974 31.5352 22.1984 31.5352C22.1989 31.5352 22.1993 31.5352 22.1996 31.5352C22.1998 31.5352 22.1999 31.5352 22.2 31.5352C22.2001 31.5352 22.2002 31.5352 22.2002 29.5352ZM30.4925 27.1377C30.2569 27.1997 29.6632 27.2786 28.7406 27.3448C27.8731 27.4071 26.8595 27.4495 25.8823 27.4781C24.9084 27.5066 23.9864 27.5209 23.3068 27.528C22.9675 27.5316 22.6895 27.5334 22.497 27.5343C22.4007 27.5347 22.3259 27.5349 22.2754 27.535C22.2501 27.5351 22.231 27.5351 22.2184 27.5351C22.212 27.5352 22.2073 27.5352 22.2043 27.5352C22.2028 27.5352 22.2017 27.5352 22.201 27.5352C22.2007 27.5352 22.2004 27.5352 22.2003 27.5352C22.2002 27.5352 22.2002 27.5352 22.2002 27.5352C22.2002 27.5352 22.2002 27.5352 22.2002 29.5352C22.2002 31.5352 22.2003 31.5352 22.2004 31.5352C22.2005 31.5352 22.2007 31.5352 22.2008 31.5352C22.2011 31.5352 22.2015 31.5352 22.202 31.5352C22.2031 31.5352 22.2045 31.5352 22.2064 31.5352C22.2101 31.5352 22.2155 31.5351 22.2226 31.5351C22.2367 31.5351 22.2573 31.5351 22.2841 31.535C22.3376 31.5349 22.4157 31.5347 22.5155 31.5342C22.7148 31.5333 23.0007 31.5315 23.349 31.5278C24.0447 31.5205 24.9929 31.5058 25.9993 31.4764C27.0025 31.447 28.0792 31.4026 29.027 31.3345C29.9196 31.2705 30.8662 31.1756 31.5108 31.0059L30.4925 27.1377ZM31.0532 26.5691C30.979 26.8446 30.7569 27.0665 30.4819 27.1405L31.5213 31.0031C33.1737 30.5584 34.4708 29.2608 34.9156 27.6093L31.0532 26.5691ZM33.4476 21.6787C31.4476 21.6787 31.4476 21.6786 31.4476 21.6785C31.4476 21.6785 31.4476 21.6784 31.4476 21.6784C31.4476 21.6783 31.4476 21.6783 31.4476 21.6784C31.4476 21.6785 31.4476 21.6788 31.4476 21.6793C31.4476 21.6804 31.4476 21.6824 31.4476 21.6852C31.4476 21.6907 31.4475 21.6997 31.4475 21.7118C31.4474 21.736 31.4472 21.773 31.4468 21.8215C31.4459 21.9183 31.4442 22.0605 31.4407 22.2374C31.4338 22.592 31.4199 23.0816 31.3923 23.6217C31.3341 24.7604 31.2231 25.9233 31.0502 26.5803L34.9185 27.5982C35.2089 26.4949 35.3295 24.9524 35.3871 23.8259C35.4174 23.2335 35.4324 22.7005 35.44 22.3157C35.4437 22.1229 35.4456 21.9661 35.4466 21.8565C35.4471 21.8017 35.4473 21.7585 35.4474 21.7284C35.4475 21.7134 35.4475 21.7016 35.4476 21.6933C35.4476 21.6891 35.4476 21.6858 35.4476 21.6834C35.4476 21.6821 35.4476 21.6811 35.4476 21.6804C35.4476 21.68 35.4476 21.6796 35.4476 21.6794C35.4476 21.6792 35.4476 21.6791 35.4476 21.679C35.4476 21.6788 35.4476 21.6787 33.4476 21.6787ZM31.0552 16.7778C31.2316 17.422 31.3431 18.5778 31.399 19.7219C31.4254 20.2629 31.4376 20.7536 31.4432 21.1091C31.446 21.2864 31.447 21.429 31.4475 21.526C31.4477 21.5745 31.4477 21.6115 31.4477 21.6357C31.4477 21.6479 31.4476 21.6568 31.4476 21.6623C31.4476 21.6651 31.4476 21.667 31.4476 21.668C31.4476 21.6686 31.4476 21.6689 31.4476 21.669C31.4476 21.669 31.4476 21.669 31.4476 21.6689C31.4476 21.6689 31.4476 21.6688 31.4476 21.6688C31.4476 21.6687 31.4476 21.6686 33.4476 21.6787C35.4476 21.6888 35.4476 21.6886 35.4476 21.6885C35.4476 21.6884 35.4476 21.6882 35.4476 21.6881C35.4476 21.6878 35.4476 21.6875 35.4476 21.6871C35.4476 21.6863 35.4476 21.6853 35.4476 21.684C35.4476 21.6815 35.4476 21.6782 35.4476 21.6739C35.4476 21.6655 35.4477 21.6536 35.4477 21.6384C35.4477 21.608 35.4476 21.5645 35.4474 21.5092C35.447 21.3987 35.4457 21.2409 35.4427 21.0467C35.4367 20.6594 35.4234 20.1228 35.3942 19.5265C35.3389 18.3961 35.2187 16.8374 34.9132 15.7215L31.0552 16.7778ZM24.815 19.9263L18.9598 23.2987L20.9562 26.7649L26.8114 23.3925L24.815 19.9263ZM18.9598 20.0202L24.815 23.3925L26.8114 19.9263L20.9562 16.554L18.9598 20.0202ZM21.958 25.0318V18.2871H17.958V25.0318H21.958Z" fill="white" mask="url(#path-1-inside-1)"/>
</svg>
