<svg width="60" height="61" viewBox="0 0 60 61" fill="none" xmlns="http://www.w3.org/2000/svg">
<circle cx="30" cy="30.5" r="30" fill="#E06841"/>
<path d="M17.3333 50.5C16.9797 50.5 16.6406 50.3608 16.3905 50.113C16.1405 49.8651 16 49.529 16 49.1786V16.484C16.0001 16.1377 16.0917 15.7976 16.2657 15.4973C16.4397 15.1971 16.69 14.9473 16.9917 14.7727C18 14.1921 20.0317 13.5 24 13.5C27.1008 13.5 30.5692 14.7149 33.6292 15.7861C36.0933 16.6491 38.4208 17.4643 40 17.4643C42.0329 17.4581 44.0441 17.051 45.9167 16.2667C46.1447 16.1713 46.393 16.1334 46.6394 16.1562C46.8859 16.179 47.1228 16.2618 47.329 16.3974C47.5353 16.533 47.7045 16.717 47.8216 16.9332C47.9387 17.1493 48 17.3908 48 17.6361V35.7529C47.9997 36.074 47.9049 36.388 47.7273 36.6566C47.5497 36.9252 47.297 37.1366 47 37.2651C46.2742 37.5797 43.6242 38.6071 40 38.6071C37.9883 38.6071 35.4683 38.0175 32.8008 37.3923C29.8025 36.6902 26.7025 35.9643 24 35.9643C20.9275 35.9643 19.355 36.4251 18.6667 36.7167V49.1786C18.6667 49.529 18.5262 49.8651 18.2761 50.113C18.0261 50.3608 17.687 50.5 17.3333 50.5Z" fill="white"/>
</svg>
