<svg width="60" height="61" viewBox="0 0 60 61" fill="none" xmlns="http://www.w3.org/2000/svg">
<circle cx="30" cy="30.5" r="30" fill="#E06841"/>
<path d="M27.9414 27.6531C28.6105 27.6531 29.153 27.1107 29.153 26.4415C29.153 25.7723 28.6105 25.2299 27.9414 25.2299C27.2722 25.2299 26.7297 25.7723 26.7297 26.4415C26.7297 27.1107 27.2722 27.6531 27.9414 27.6531Z" fill="white"/>
<path d="M27.9413 20.3832C24.6008 20.3832 21.8831 23.1009 21.8831 26.4414C21.8831 29.7819 24.6008 32.4996 27.9413 32.4996C31.2818 32.4996 33.9995 29.7819 33.9995 26.4414C33.9995 23.1009 31.2818 20.3832 27.9413 20.3832ZM27.9413 30.0763C25.937 30.0763 24.3063 28.4457 24.3063 26.4414C24.3063 24.4371 25.937 22.8065 27.9413 22.8065C29.9456 22.8065 31.5762 24.4371 31.5762 26.4414C31.5762 28.4457 29.9456 30.0763 27.9413 30.0763Z" fill="white"/>
<path d="M27.9414 12.5C20.2541 12.5 14 18.7541 14 26.4414C14 30.2171 15.5398 33.8358 18.2433 36.4557V49.0109H35.518V43.9485H40.2482L40.9803 36.7557H45.8855L41.8811 26.2143C41.7591 18.6314 35.5527 12.5 27.9414 12.5ZM27.9414 34.9229C23.2647 34.9229 19.4599 31.1181 19.4599 26.4414C19.4599 21.7647 23.2647 17.9599 27.9414 17.9599C32.6181 17.9599 36.4229 21.7647 36.4229 26.4414C36.4229 31.1181 32.6181 34.9229 27.9414 34.9229Z" fill="white"/>
</svg>
