<svg width="60" height="61" viewBox="0 0 60 61" fill="none" xmlns="http://www.w3.org/2000/svg">
<circle cx="30" cy="30.5" r="30" fill="#E06841"/>
<path d="M22.6669 29.5C24.5516 29.5 26.3739 28.6654 27.8002 27.1509C29.1871 25.6736 30.0341 23.7036 30.1836 21.6054C30.3431 19.3673 29.6546 17.3091 28.2457 15.8091C26.8368 14.3091 24.8669 13.5 22.6669 13.5C20.4825 13.5 18.5071 14.3236 17.1028 15.82C15.6847 17.3309 14.9945 19.3854 15.154 21.6045C15.307 23.7054 16.1531 25.6745 17.5373 27.15C18.9599 28.6654 20.7813 29.5 22.6669 29.5ZM10.5826 45.5H34.7504C35.1389 45.502 35.5228 45.4157 35.8724 45.2475C36.222 45.0793 36.5281 44.8339 36.767 44.53C37.0205 44.2005 37.1955 43.8185 37.279 43.4125C37.3625 43.0065 37.3523 42.587 37.2492 42.1854C36.4774 39.1118 34.5652 36.5627 31.7199 34.8145C29.1945 33.2636 25.9797 32.4091 22.6669 32.4091C19.289 32.4091 16.1586 33.2272 13.6186 34.7772C10.7668 36.5163 8.85191 39.08 8.08375 42.1909C7.98187 42.5927 7.97282 43.0122 8.05725 43.418C8.1417 43.8238 8.31746 44.2055 8.57141 44.5345C8.81011 44.837 9.11546 45.0813 9.46407 45.2486C9.81267 45.416 10.1953 45.5019 10.5826 45.5ZM39.9918 29.8636C43.2176 29.8636 46.0537 26.8891 46.3168 23.2336C46.447 21.3609 45.8585 19.6291 44.6668 18.3591C43.488 17.1018 41.8252 16.4091 39.9918 16.4091C38.1585 16.4091 36.5085 17.1055 35.3233 18.37C34.1224 19.65 33.5358 21.3782 33.6733 23.2354C33.9364 26.89 36.7716 29.8636 39.9918 29.8636ZM33.973 32.7227C35.5854 31.9409 37.6782 31.55 39.9909 31.55C42.6914 31.55 45.314 32.2482 47.3765 33.5154C49.7149 34.9545 51.2879 37.05 51.9231 39.58C52.0161 39.9439 52.0249 40.3239 51.9488 40.6917C51.8728 41.0594 51.7139 41.4054 51.484 41.7036C51.2659 41.9813 50.9865 42.2057 50.6672 42.3595C50.348 42.5133 49.9974 42.5925 49.6424 42.5909H39.4675C39.2958 42.5909 39.1295 42.5311 38.9977 42.4219C38.8658 42.3128 38.7768 42.1612 38.7461 41.9936C38.736 41.9363 38.7232 41.8791 38.7085 41.8227C37.9312 38.7263 36.1098 36.11 33.4185 34.2027C33.3195 34.1319 33.2398 34.0378 33.1868 33.9288C33.1338 33.8198 33.109 33.6994 33.1147 33.5785C33.1205 33.4577 33.1565 33.3401 33.2197 33.2365C33.2828 33.133 33.371 33.0467 33.4762 32.9854C33.6201 32.9018 33.7851 32.8136 33.973 32.7227Z" fill="white"/>
</svg>
