<svg width="146" height="72" viewBox="0 0 146 72" fill="none" xmlns="http://www.w3.org/2000/svg">
<path d="M82.7799 21.6039V14.6175H83.9013C86.468 14.6175 87.4791 15.6354 87.4791 18.1075C87.4791 20.711 86.0338 21.6039 83.7312 21.6039H82.7799ZM89.3528 18.1884C89.3528 14.8027 87.4791 12.8986 83.9307 12.8986H80.9062V23.3228H83.9155C87.4198 23.3228 89.3528 21.4339 89.3528 18.1884Z" fill="#325694"/>
<path d="M94.7667 12.8989H92.8931V23.323H94.7667V12.8989Z" fill="#325694"/>
<path d="M103.348 23.4697C104.735 23.4697 105.87 22.8355 106.432 21.8543L106.594 23.3227H108.076V17.6865H103.893V19.1989H106.188C106.13 20.8957 104.978 21.7955 103.348 21.7955C101.113 21.7955 100.161 20.1061 100.161 18.033C100.161 16.1005 101.113 14.3669 103.318 14.3669C104.646 14.3669 105.739 15.0007 106.217 16.4171L107.877 15.7241C107.037 13.7769 105.384 12.7285 103.334 12.7285C99.8877 12.7285 98.3022 15.2516 98.3022 18.1075C98.3022 20.9692 99.9181 23.4697 103.348 23.4697Z" fill="#325694"/>
<path d="M113.822 12.8989H111.949V23.323H113.822V12.8989Z" fill="#325694"/>
<path d="M120.169 23.3228H122.044V14.5733H125.304V12.8986H116.901V14.5733H120.169V23.3228Z" fill="#325694"/>
<path d="M131.04 15.6504L132.441 19.457H129.63L131.04 15.6504ZM129.04 21.0582H133.032L133.866 23.3225H135.887L131.733 12.8989H130.332L126.156 23.3225H128.2L129.04 21.0582Z" fill="#325694"/>
<path d="M140.783 21.5522V12.8989H138.91V23.3225H145.239V21.5522H140.783Z" fill="#325694"/>
<path d="M82.7657 30.859H84.1743C85.4437 30.859 85.996 31.3457 85.996 32.1946C85.996 33.0204 85.4579 33.4625 84.1743 33.4625H82.7657V30.859ZM82.7657 35.2112H84.1743C86.2989 35.2112 87.8555 34.1413 87.8555 32.1946C87.8555 30.2248 86.2989 29.1103 84.1743 29.1103H80.9062V39.5339H82.7657V35.2112Z" fill="#325694"/>
<path d="M92.7506 35.2557V29.1103H90.8843V35.4694C90.8843 38.0219 92.0723 39.6814 94.8684 39.6814C97.6644 39.6814 98.8593 38.0219 98.8593 35.3954V29.1103H96.9856V35.2557C96.9856 36.9378 96.5504 37.8744 94.8684 37.8744C93.1932 37.8744 92.7506 36.9378 92.7506 35.2557Z" fill="#325694"/>
<path d="M106.987 37.7485H104.767V34.923H106.914C107.895 34.923 108.514 35.5577 108.514 36.3027C108.514 37.2838 107.954 37.7485 106.987 37.7485ZM104.767 30.7997H106.537C107.43 30.7997 108.123 31.2124 108.123 32.0245C108.123 33.0498 107.415 33.3076 106.684 33.3076H104.767V30.7997ZM108.684 33.9575C109.275 33.6399 109.842 32.8724 109.842 31.9206C109.842 29.8337 108.094 29.1103 106.507 29.1103H102.893V39.5339H106.958C108.729 39.5339 110.359 38.4503 110.359 36.5095C110.359 35.469 109.636 34.3329 108.684 33.9575Z" fill="#325694"/>
<path d="M120.213 37.7637H115.757V29.1103H113.884V39.5339H120.213V37.7637Z" fill="#325694"/>
<path d="M125.189 29.1101H123.316V39.5337H125.189V29.1101Z" fill="#325694"/>
<path d="M133.771 37.9033C131.536 37.9033 130.584 36.3178 130.584 34.2441C130.584 32.3121 131.536 30.7257 133.742 30.7257C135.1 30.7257 136.176 31.2564 136.567 32.6287L138.315 31.9357C137.475 29.9885 135.822 28.9402 133.757 28.9402C130.327 28.9402 128.726 31.4633 128.726 34.3191C128.726 37.1809 130.341 39.6814 133.771 39.6814C135.844 39.6814 137.504 38.6267 138.331 36.6795L136.597 35.9713C136.036 37.3725 135.113 37.9033 133.771 37.9033Z" fill="#325694"/>
<path d="M87.236 53.9759H82.7799V45.3226H80.9062V55.7467H87.236V53.9759Z" fill="#325694"/>
<path d="M92.677 51.8809L94.0866 48.0742L95.4878 51.8809H92.677ZM93.3788 45.3227L89.2031 55.7468H91.2464L92.0869 53.482H96.0779L96.912 55.7468H98.9328L94.7801 45.3227H93.3788Z" fill="#325694"/>
<path d="M106.05 53.9609H103.829V51.1354H105.977C106.957 51.1354 107.577 51.7701 107.577 52.5151C107.577 53.4962 107.016 53.9609 106.05 53.9609ZM103.829 47.0121H105.599C106.493 47.0121 107.186 47.4258 107.186 48.2369C107.186 49.2622 106.478 49.52 105.747 49.52H103.829V47.0121ZM107.747 50.1699C108.337 49.8523 108.905 49.0848 108.905 48.134C108.905 46.0461 107.157 45.3227 105.57 45.3227H101.955V55.7468H106.02C107.791 55.7468 109.421 54.6627 109.421 52.7219C109.421 51.6814 108.698 50.5453 107.747 50.1699Z" fill="#325694"/>
<path d="M83.7717 69.1286C83.6006 69.2467 83.3649 69.3036 83.062 69.2987H81.8563V67.9867H83.062C83.3649 67.9818 83.6006 68.0367 83.7717 68.1533C83.9417 68.269 84.027 68.4288 84.027 68.6321C84.027 68.8449 83.9417 69.0105 83.7717 69.1286ZM81.8563 65.9792H83.062C83.308 65.9743 83.5001 66.0248 83.6403 66.1282C83.7795 66.2321 83.8496 66.3786 83.8496 66.5678C83.8496 66.7619 83.7795 66.9133 83.6403 67.0217C83.5001 67.1305 83.308 67.1849 83.062 67.1849H81.8563V65.9792ZM83.9559 67.4971C84.2255 67.4309 84.4372 67.2995 84.5906 67.1035C84.7445 66.9079 84.8215 66.6717 84.8215 66.3977C84.8215 66.0145 84.6681 65.7121 84.3637 65.4896C84.0589 65.268 83.6408 65.1568 83.112 65.1568H80.906V70.1211H83.1757C83.7432 70.1211 84.1907 70 84.5201 69.7565C84.8479 69.5129 85.0121 69.1781 85.0121 68.7527C85.0121 68.4214 84.9195 68.145 84.7328 67.9225C84.546 67.7004 84.2868 67.5588 83.9559 67.4971Z" fill="#939598"/>
<path d="M87.346 69.0858L86.2687 66.327H85.3115L86.8784 70.0577L86.7652 70.3057C86.6461 70.561 86.4618 70.689 86.2119 70.689C86.1266 70.689 86.0462 70.6733 85.9707 70.6429C85.8948 70.612 85.8114 70.5635 85.7222 70.4973L85.3252 71.1997C85.4718 71.3178 85.6193 71.4035 85.7683 71.4584C85.9173 71.5128 86.0839 71.5403 86.2687 71.5403C86.5711 71.5403 86.8318 71.4609 87.0524 71.3026C87.272 71.1438 87.4406 70.9085 87.5596 70.5968L89.2613 66.327H88.3325L87.346 69.0858Z" fill="#939598"/>
<path d="M92.7856 68.2564L93.6659 66.1709L94.5314 68.2564H92.7856ZM93.1978 65.1564L91.0203 70.1212H92.0054L92.446 69.0719H94.871L95.3112 70.1212H96.3325L94.1834 65.1564H93.1978Z" fill="#939598"/>
<path d="M99.1694 68.8022C99.1459 68.986 99.0395 69.1408 98.8508 69.2668C98.6617 69.3923 98.4347 69.455 98.1701 69.455C97.9618 69.455 97.7976 69.4075 97.677 69.3129C97.5565 69.2183 97.4962 69.0908 97.4962 68.9301C97.4962 68.7644 97.554 68.6448 97.6692 68.5718C97.7858 68.4983 97.9667 68.4615 98.2122 68.4615H99.1694V68.8022ZM99.6629 66.6457C99.3904 66.4095 99.0091 66.2914 98.5176 66.2914C98.1911 66.2914 97.9064 66.3286 97.6628 66.4011C97.4192 66.4747 97.1477 66.5937 96.8512 66.7594L97.184 67.3975C97.5766 67.1613 97.9525 67.0432 98.3117 67.0432C98.5901 67.0432 98.8028 67.1044 98.9503 67.2275C99.0969 67.3505 99.1694 67.523 99.1694 67.7455V67.8445H98.0627C97.6055 67.8494 97.2501 67.9523 96.9997 68.1533C96.7488 68.3542 96.6233 68.6321 96.6233 68.986C96.6233 69.209 96.6777 69.4099 96.7865 69.5898C96.8948 69.7692 97.0502 69.9093 97.2511 70.0118C97.4516 70.1132 97.6849 70.1642 97.95 70.1642C98.2196 70.1642 98.4583 70.1211 98.6666 70.0363C98.8739 69.9515 99.0439 69.826 99.1772 69.6599V70.1211H100.084L100.078 67.6391C100.073 67.2132 99.935 66.8824 99.6629 66.6457Z" fill="#939598"/>
<path d="M103.95 69.0398C103.751 69.2549 103.496 69.3623 103.185 69.3623C102.867 69.3623 102.61 69.2559 102.411 69.0432C102.213 68.8305 102.113 68.5541 102.113 68.2135C102.113 67.8777 102.213 67.6033 102.411 67.3906C102.61 67.1784 102.867 67.0715 103.185 67.0715C103.496 67.0715 103.751 67.1784 103.95 67.3906C104.149 67.6033 104.247 67.8777 104.247 68.2135C104.247 68.5492 104.149 68.8246 103.95 69.0398ZM104.329 66.5427C104.058 66.3805 103.745 66.2981 103.389 66.2981C103.106 66.2981 102.857 66.3545 102.641 66.4648C102.426 66.576 102.25 66.7378 102.113 66.9509V66.3266H101.191V71.4977H102.113V69.5044C102.255 69.7171 102.435 69.8793 102.652 69.9896C102.87 70.1014 103.12 70.1563 103.404 70.1563C103.758 70.1563 104.071 70.0764 104.341 69.9156C104.61 69.7544 104.818 69.5304 104.964 69.2417C105.111 68.9535 105.185 68.6207 105.185 68.2419C105.185 67.8586 105.11 67.5205 104.961 67.2274C104.812 66.9348 104.602 66.7059 104.329 66.5427Z" fill="#939598"/>
<path d="M107.489 69.3478C107.357 69.3478 107.257 69.312 107.191 69.238C107.125 69.1655 107.092 69.041 107.092 68.866V67.1565H108.177V66.4826H107.092V65.4402H106.177V66.4826H105.638L105.645 67.1565H106.177V69.0292C106.177 69.4022 106.281 69.685 106.49 69.8771C106.697 70.0678 106.964 70.1643 107.291 70.1643C107.621 70.1643 107.938 70.0722 108.241 69.8869L108.028 69.1924C107.81 69.2958 107.631 69.3478 107.489 69.3478Z" fill="#939598"/>
<path d="M109 70.1215H109.922V66.327H109V70.1215Z" fill="#939598"/>
<path d="M109.455 64.6951C109.303 64.6951 109.178 64.748 109.078 64.852C108.979 64.9554 108.93 65.0877 108.93 65.2484C108.93 65.4053 108.979 65.5347 109.078 65.6386C109.178 65.7435 109.303 65.7954 109.455 65.7954C109.606 65.7954 109.731 65.7435 109.831 65.6386C109.929 65.5347 109.979 65.4053 109.979 65.2484C109.979 65.0877 109.929 64.9554 109.831 64.852C109.731 64.748 109.606 64.6951 109.455 64.6951Z" fill="#939598"/>
<path d="M112.908 70.1215H113.858V65.1567H112.908V70.1215Z" fill="#939598"/>
<path d="M117.363 66.2916C116.715 66.3009 116.26 66.5494 116.001 67.0361V66.3269H115.078V70.1213H116.001V68.2565C116.001 67.9389 116.089 67.6796 116.266 67.4762C116.443 67.2728 116.686 67.1689 116.993 67.164C117.253 67.164 117.459 67.241 117.61 67.3944C117.762 67.5483 117.837 67.7575 117.837 68.0217V70.1213H118.766V67.7522C118.766 67.3037 118.64 66.9469 118.391 66.6852C118.14 66.4225 117.797 66.2916 117.363 66.2916Z" fill="#939598"/>
<path d="M121.838 68.0537C121.667 67.9758 121.449 67.8964 121.185 67.816C120.935 67.7459 120.751 67.6778 120.635 67.6145C120.52 67.5508 120.461 67.4597 120.461 67.3416C120.461 67.2274 120.508 67.144 120.6 67.0896C120.692 67.0347 120.817 67.0073 120.972 67.0073C121.138 67.0073 121.318 67.0382 121.515 67.1004C121.711 67.1617 121.902 67.247 122.085 67.3558L122.419 66.6882C122.23 66.5613 122.013 66.4613 121.77 66.3903C121.526 66.3202 121.279 66.2844 121.029 66.2844C120.618 66.2844 120.275 66.3829 120.004 66.5789C119.732 66.7745 119.596 67.0602 119.596 67.4332C119.596 67.6748 119.655 67.8699 119.774 68.0184C119.891 68.1674 120.031 68.2786 120.192 68.3517C120.353 68.4257 120.562 68.5002 120.817 68.5752C121.081 68.6555 121.273 68.7291 121.391 68.7957C121.509 68.8614 121.568 68.9604 121.568 69.0927C121.568 69.2113 121.517 69.3 121.415 69.3588C121.314 69.4181 121.178 69.4476 121.008 69.4476C120.795 69.4476 120.571 69.4064 120.334 69.3236C120.098 69.2407 119.894 69.126 119.725 68.9795L119.404 69.625C119.599 69.795 119.834 69.9264 120.114 70.0185C120.393 70.1107 120.679 70.1567 120.972 70.1567C121.402 70.1567 121.759 70.0577 122.043 69.8597C122.327 69.6603 122.469 69.3765 122.469 69.0079C122.469 68.757 122.406 68.5551 122.28 68.4012C122.155 68.2478 122.008 68.1316 121.838 68.0537Z" fill="#939598"/>
<path d="M124.759 69.3478C124.627 69.3478 124.527 69.312 124.461 69.238C124.395 69.1655 124.362 69.041 124.362 68.866V67.1565H125.447V66.4826H124.362V65.4402H123.447V66.4826H122.909L122.915 67.1565H123.447V69.0292C123.447 69.4022 123.551 69.685 123.76 69.8771C123.967 70.0678 124.234 70.1643 124.561 70.1643C124.892 70.1643 125.209 70.0722 125.511 69.8869L125.298 69.1924C125.08 69.2958 124.901 69.3478 124.759 69.3478Z" fill="#939598"/>
<path d="M126.271 70.1215H127.193V66.327H126.271V70.1215Z" fill="#939598"/>
<path d="M126.725 64.6951C126.573 64.6951 126.448 64.748 126.348 64.852C126.249 64.9554 126.2 65.0877 126.2 65.2484C126.2 65.4053 126.249 65.5347 126.348 65.6386C126.448 65.7435 126.573 65.7954 126.725 65.7954C126.876 65.7954 127.001 65.7435 127.101 65.6386C127.2 65.5347 127.25 65.4053 127.25 65.2484C127.25 65.0877 127.2 64.9554 127.101 64.852C127.001 64.748 126.876 64.6951 126.725 64.6951Z" fill="#939598"/>
<path d="M129.837 69.3478C129.705 69.3478 129.605 69.312 129.539 69.238C129.473 69.1655 129.44 69.041 129.44 68.866V67.1565H130.525V66.4826H129.44V65.4402H128.525V66.4826H127.986L127.993 67.1565H128.525V69.0292C128.525 69.4022 128.629 69.685 128.838 69.8771C129.045 70.0678 129.313 70.1643 129.639 70.1643C129.97 70.1643 130.287 70.0722 130.589 69.8869L130.377 69.1924C130.158 69.2958 129.98 69.3478 129.837 69.3478Z" fill="#939598"/>
<path d="M133.923 68.1994C133.923 68.5116 133.838 68.7694 133.668 68.9723C133.498 69.1757 133.266 69.2801 132.973 69.284C132.718 69.284 132.518 69.209 132.374 69.0575C132.229 68.9056 132.157 68.6983 132.157 68.4332V66.3267H131.228V68.7022C131.228 69.1521 131.351 69.507 131.597 69.7662C131.842 70.027 132.178 70.1564 132.604 70.1564C133.229 70.1564 133.668 69.9113 133.923 69.4192V70.1211H134.852V66.3267H133.923V68.1994Z" fill="#939598"/>
<path d="M137.504 69.3478C137.372 69.3478 137.272 69.312 137.206 69.238C137.14 69.1655 137.107 69.041 137.107 68.866V67.1565H138.192V66.4826H137.107V65.4402H136.192V66.4826H135.653L135.66 67.1565H136.192V69.0292C136.192 69.4022 136.296 69.685 136.505 69.8771C136.712 70.0678 136.98 70.1643 137.306 70.1643C137.637 70.1643 137.954 70.0722 138.256 69.8869L138.044 69.1924C137.825 69.2958 137.647 69.3478 137.504 69.3478Z" fill="#939598"/>
<path d="M139.555 67.9299C139.597 67.6462 139.71 67.4227 139.892 67.2595C140.073 67.0963 140.299 67.0149 140.569 67.0149C140.858 67.0149 141.089 67.0977 141.264 67.2629C141.439 67.4286 141.532 67.6511 141.541 67.9299H139.555ZM140.563 66.2984C140.188 66.2984 139.855 66.3802 139.562 66.5424C139.269 66.7061 139.04 66.9345 138.877 67.2276C138.715 67.5207 138.633 67.8564 138.633 68.2348C138.633 68.6131 138.713 68.9479 138.874 69.238C139.035 69.5296 139.263 69.7546 139.559 69.9154C139.854 70.0761 140.196 70.1565 140.583 70.1565C140.914 70.1565 141.216 70.1006 141.487 69.9864C141.759 69.8727 141.991 69.712 142.179 69.5042L141.683 68.9861C141.55 69.1238 141.395 69.2292 141.218 69.3017C141.041 69.3758 140.855 69.4125 140.661 69.4125C140.382 69.4125 140.147 69.3356 139.955 69.1812C139.765 69.0283 139.637 68.8165 139.576 68.547H142.378C142.382 68.4857 142.384 68.3936 142.384 68.2706C142.384 67.6462 142.232 67.1614 141.928 66.8164C141.622 66.4709 141.167 66.2984 140.563 66.2984Z" fill="#939598"/>
<path d="M9.70378 48.5971C9.70378 48.356 9.71309 48.1173 9.73074 47.8815C9.78416 47.1723 9.916 46.4857 10.114 45.828C8.96029 42.8109 8.32217 39.5414 8.32217 36.1238C8.32217 21.0976 20.5469 8.87236 35.5727 8.87236C50.5989 8.87236 62.8246 21.0976 62.8246 36.1238C62.8246 39.5414 62.186 42.8109 61.0323 45.828C61.2308 46.4857 61.3622 47.1723 61.4156 47.8815C61.4332 48.1173 61.442 48.356 61.442 48.5971V50.4517C63.8049 46.2034 65.1556 41.3195 65.1556 36.1238C65.1556 19.8121 51.8844 6.54092 35.5727 6.54092C19.2609 6.54092 5.99072 19.8121 5.99072 36.1238C5.99072 41.3195 7.34195 46.2039 9.70378 50.4517V48.5971Z" fill="#E06841"/>
<path d="M19.2995 25.7869C15.9398 25.7869 13.2153 28.5109 13.2153 31.8711C13.2153 35.2313 15.9398 37.9553 19.2995 37.9553C22.6592 37.9553 25.3832 35.2313 25.3832 31.8711C25.3832 28.5109 22.6592 25.7869 19.2995 25.7869Z" fill="#325694"/>
<path d="M24.9004 58.9611V54.726C24.9004 53.5018 25.1072 52.326 25.4875 51.2316C25.5508 51.0493 25.6194 50.8689 25.6919 50.6915C25.9835 49.9803 26.3492 49.3079 26.7804 48.683C27.3191 47.9028 27.9587 47.197 28.6806 46.5854C27.7553 42.2523 23.9089 39.0009 19.2994 39.0009C16.0059 39.0009 13.1015 40.6619 11.3729 43.1904C10.8265 43.9907 10.4005 44.8793 10.1138 45.8276C9.91583 46.4854 9.78399 47.1725 9.73057 47.8812C9.71293 48.1174 9.70361 48.3561 9.70361 48.5972V50.4518C13.0466 56.464 18.4246 61.1916 24.9004 63.7063V61.196V58.9611Z" fill="#325694"/>
<path d="M51.8462 25.7869C48.4865 25.7869 45.7625 28.5109 45.7625 31.8711C45.7625 35.2313 48.4865 37.9553 51.8462 37.9553C55.2063 37.9553 57.9304 35.2313 57.9304 31.8711C57.9304 28.5109 55.2063 25.7869 51.8462 25.7869Z" fill="#325694"/>
<path d="M61.4421 50.4516V48.597C61.4421 48.3559 61.4328 48.1172 61.4151 47.881C61.3622 47.1723 61.2303 46.4856 61.0319 45.8279C60.7456 44.879 60.3197 43.991 59.7728 43.1906C58.0446 40.6622 55.1403 39.0012 51.8462 39.0012C47.2373 39.0012 43.3904 42.2521 42.4656 46.5851C43.1875 47.1968 43.8276 47.9025 44.3657 48.6833C44.5814 48.9955 44.7804 49.3194 44.9622 49.6547C45.2352 50.1575 45.4685 50.6844 45.6586 51.2313C45.7856 51.5965 45.8924 51.9704 45.9797 52.3517C46.0669 52.7335 46.1331 53.1232 46.1777 53.5192C46.1997 53.7172 46.2174 53.9166 46.2281 54.1181C46.2394 54.3195 46.2453 54.5219 46.2453 54.7263V58.9608V61.1957V63.7061C52.7211 61.1918 58.099 56.4642 61.4421 50.4516Z" fill="#325694"/>
<path d="M46.2456 61.1957V58.9608V54.7263C46.2456 54.5219 46.2397 54.3195 46.2284 54.1181C46.2172 53.9166 46.2 53.7172 46.1779 53.5191C46.1333 53.1231 46.0672 52.7335 45.9799 52.3522C45.8927 51.9704 45.7859 51.5965 45.6589 51.2313C45.4688 50.6844 45.235 50.1575 44.9625 49.6546C44.7806 49.3199 44.5812 48.9955 44.366 48.6833C43.8274 47.9025 43.1878 47.1972 42.4659 46.5851C40.6054 45.0089 38.2024 44.0537 35.5735 44.0537C32.9436 44.0537 30.5406 45.0089 28.6806 46.5851C27.9587 47.1972 27.3191 47.9025 26.7804 48.6833C26.3491 49.3076 25.9835 49.9801 25.6919 50.6912C25.6194 50.8691 25.5508 51.049 25.4875 51.2313C25.1072 52.3262 24.9004 53.5015 24.9004 54.7263V58.9608V61.1957V63.7065C26.1913 64.2074 27.5254 64.6191 28.8958 64.9367C31.0429 65.4342 33.2763 65.7062 35.573 65.7062C37.8696 65.7062 40.1031 65.4342 42.2507 64.9367C43.6215 64.6191 44.9551 64.2074 46.2456 63.706V61.1957Z" fill="#E06841"/>
<path d="M21.5888 66.1367C18.5026 64.6987 15.657 62.7942 13.1281 60.4912C10.6138 58.1872 8.47595 55.5303 6.7596 52.5872C3.8013 47.4989 2.2359 41.6798 2.2359 35.7554C2.2359 34.8217 2.27364 33.9038 2.34127 33.0005C2.36382 32.7069 2.27363 32.4134 2.07759 32.1869C1.88939 31.9615 1.61836 31.8262 1.31743 31.7963C0.699898 31.7434 0.16568 32.2173 0.113239 32.8201C0.037762 33.7832 2.41496e-05 34.7698 2.41496e-05 35.7554C-0.00732747 42.0714 1.66394 48.2816 4.83298 53.7164C6.65422 56.8477 8.94254 59.6854 11.6224 62.1394C14.3176 64.6012 17.3513 66.6258 20.6404 68.1613C20.7914 68.2368 20.9492 68.2672 21.1144 68.2672C21.5437 68.2672 21.9431 68.0187 22.1309 67.6266C22.3867 67.0704 22.146 66.3999 21.5888 66.1367Z" fill="#325694"/>
<path d="M70.1564 31.6609C69.8628 31.6829 69.5918 31.8187 69.3962 32.052C69.2075 32.2774 69.11 32.5715 69.1404 32.8651C69.2154 33.8213 69.261 34.7917 69.261 35.7553C69.261 41.6268 67.7171 47.4081 64.7966 52.4738C63.1027 55.4174 60.9654 58.0821 58.4585 60.3935C55.9442 62.719 53.107 64.631 50.0276 66.0836C49.7571 66.2116 49.5532 66.4297 49.4557 66.7159C49.3508 66.9947 49.365 67.2957 49.4934 67.5662C49.6738 67.9583 50.0727 68.2068 50.5021 68.2068C50.6677 68.2068 50.826 68.1764 50.9765 68.1009C54.2661 66.5507 57.292 64.5104 59.9793 62.0412C62.6514 59.573 64.9245 56.7348 66.7315 53.5883C69.8476 48.1913 71.4963 42.0257 71.4963 35.7553C71.4963 34.7241 71.4508 33.6929 71.3684 32.6769C71.3155 32.0745 70.7666 31.608 70.1564 31.6609Z" fill="#325694"/>
<path d="M15.8969 8.52832C16.1224 8.52832 16.3488 8.46069 16.537 8.32542C22.1595 4.37367 28.776 2.26523 35.6718 2.23533H35.8066C42.7019 2.23533 49.3262 4.32074 54.9644 8.24994C55.4541 8.5886 56.177 8.46069 56.5147 7.97107C56.6882 7.73091 56.7558 7.4295 56.7033 7.13592C56.6509 6.84235 56.4848 6.58651 56.2441 6.4135C50.23 2.22014 43.1617 -5.05447e-05 35.8066 -5.05447e-05H35.6561C28.3026 0.0298462 21.2416 2.28042 15.2495 6.50417C15.0089 6.66934 14.8432 6.92518 14.7903 7.21826C14.7447 7.51233 14.805 7.81325 14.9785 8.05439C15.1897 8.35531 15.5279 8.52832 15.8969 8.52832Z" fill="#325694"/>
<path d="M65.8244 19.7849C66.4615 19.7849 66.9781 19.2683 66.9781 18.6312C66.9781 17.9936 66.4615 17.477 65.8244 17.477C65.1867 17.477 64.6702 17.9936 64.6702 18.6312C64.6702 19.2683 65.1867 19.7849 65.8244 19.7849Z" fill="#E06841"/>
<path d="M5.64273 19.7849C6.28036 19.7849 6.79644 19.2683 6.79644 18.6312C6.79644 17.9936 6.28036 17.477 5.64273 17.477C5.00559 17.477 4.48901 17.9936 4.48901 18.6312C4.48901 19.2683 5.00559 19.7849 5.64273 19.7849Z" fill="#E06841"/>
<path d="M35.7484 69.2322C35.1108 69.2322 34.5947 69.7488 34.5947 70.386C34.5947 71.0236 35.1108 71.5402 35.7484 71.5402C36.3861 71.5402 36.9022 71.0236 36.9022 70.386C36.9022 69.7488 36.3861 69.2322 35.7484 69.2322Z" fill="#E06841"/>
<path d="M82.8696 7.96582H83.9964V2.70843H85.9549V1.70224H80.9062V2.70843H82.8696V7.96582Z" fill="#939598"/>
<path d="M88.9312 5.3506H91.6753V7.96582H92.8011V1.70224H91.6753V4.31795H88.9312V1.70224H87.8054V7.96582H88.9312V5.3506Z" fill="#939598"/>
<path d="M99.5324 6.90204H96.4913V5.35036H99.3236V4.31819H96.4913V2.73514H99.5324V1.70248H95.366V7.96558H99.5324V6.90204Z" fill="#939598"/>
<path d="M43.3589 41.1515C42.7835 40.7123 42.0969 39.9056 41.793 38.4814C41.6357 37.7447 41.5793 36.8464 41.6974 35.7422C41.7469 35.2864 41.7764 34.8467 41.792 34.4203C41.8812 31.9419 41.4117 29.9951 40.4516 28.9757C39.7924 28.2758 38.6696 27.8299 37.733 28.2327C37.6653 28.2621 37.6001 28.2984 37.5271 28.3136C37.5649 28.3057 37.3218 27.8941 37.2914 27.8568C36.5503 26.9423 35.0663 26.882 34.0057 27.104C33.6935 27.1697 33.3877 27.253 33.0872 27.3598L33.0436 27.376C31.9551 27.7759 29.4506 28.712 29.4389 34.1772C29.4384 34.3189 29.432 34.4497 29.4354 34.5973C29.4624 35.896 29.3791 37.0125 29.1982 37.9633C28.9507 39.267 28.5145 40.2507 27.8808 40.8809C27.7749 40.9863 27.6701 41.0755 27.5676 41.1515C27.5676 41.1515 27.6014 41.1726 27.6524 41.2029C27.7774 41.2779 27.9215 41.3554 28.0867 41.4333C29.0767 41.9165 31.4993 42.8536 35.3692 42.8899C35.404 42.8899 35.4353 42.8879 35.4696 42.8879C35.5039 42.8879 35.5353 42.8899 35.5696 42.8899C35.6966 42.8899 35.822 42.886 35.9465 42.8786C39.4787 42.7933 41.7406 41.9587 42.7507 41.4808C42.9663 41.3877 43.1751 41.2823 43.3712 41.1515H43.3589Z" fill="#E06841"/>
</svg>
