<svg width="42" height="42" viewBox="0 0 42 42" fill="none" xmlns="http://www.w3.org/2000/svg">
<mask id="path-1-inside-1" fill="white">
<path fill-rule="evenodd" clip-rule="evenodd" d="M18.9529 0.785156C9.01176 0.785156 0.952881 8.84403 0.952881 18.7852V23.7852C0.952881 33.7263 9.01176 41.7852 18.9529 41.7852H23.9529C33.894 41.7852 41.9529 33.7263 41.9529 23.7852V18.7852C41.9529 8.84403 33.894 0.785156 23.9529 0.785156H18.9529ZM31.9529 12.1857L30.2768 14.0173C30.1338 14.1403 30.0603 14.3488 30.0878 14.5513V28.0175C30.0576 28.22 30.1324 28.4285 30.2755 28.5515L31.9122 30.3831V30.7852H23.6763V30.3831L25.3746 28.5065C25.54 28.319 25.54 28.2605 25.54 27.9725V17.0909L20.8216 30.7507H20.1837L14.6961 17.0909V26.2444C14.6476 26.6314 14.7604 27.017 14.9993 27.2945L17.2043 30.3441V30.7462H10.9529V30.3501L13.1592 27.296C13.3928 27.0185 13.5018 26.6269 13.4414 26.2459V15.6629C13.4676 15.3703 13.3666 15.0778 13.1763 14.8798L11.218 12.1872V11.7852H17.3054L22.0107 23.5533L26.1477 11.7852H31.9529V12.1857Z"/>
</mask>
<path d="M30.2768 14.0173L31.5807 15.5338L31.6715 15.4558L31.7523 15.3675L30.2768 14.0173ZM31.9529 12.1857L33.4284 13.5359L33.9529 12.9627V12.1857H31.9529ZM30.0878 14.5513H32.0878V14.4158L32.0695 14.2816L30.0878 14.5513ZM30.0878 28.0175L32.066 28.3124L32.0878 28.1658V28.0175H30.0878ZM30.2755 28.5515L31.7668 27.2189L31.6792 27.1208L31.5794 27.035L30.2755 28.5515ZM31.9122 30.3831H33.9122V29.6197L33.4035 29.0505L31.9122 30.3831ZM31.9122 30.7852V32.7852H33.9122V30.7852H31.9122ZM23.6763 30.7852H21.6763V32.7852H23.6763V30.7852ZM23.6763 30.3831L22.1934 29.0411L21.6763 29.6125V30.3831H23.6763ZM25.3746 28.5065L26.8575 29.8486L26.8661 29.8391L26.8746 29.8294L25.3746 28.5065ZM25.54 17.0909H27.54L23.6496 16.4379L25.54 17.0909ZM20.8216 30.7507V32.7507H22.2467L22.712 31.4036L20.8216 30.7507ZM20.1837 30.7507L18.3279 31.4962L18.8318 32.7507H20.1837V30.7507ZM14.6961 17.0909L16.552 16.3454L12.6961 17.0909H14.6961ZM14.6961 26.2444L16.6806 26.4934L16.6961 26.3694V26.2444H14.6961ZM14.9993 27.2945L16.6201 26.1226L16.5704 26.054L16.5151 25.9897L14.9993 27.2945ZM17.2043 30.3441H19.2043V29.6968L18.8251 29.1723L17.2043 30.3441ZM17.2043 30.7462V32.7462H19.2043V30.7462H17.2043ZM10.9529 30.7462H8.95288V32.7462H10.9529V30.7462ZM10.9529 30.3501L9.33166 29.179L8.95288 29.7033V30.3501H10.9529ZM13.1592 27.296L11.6292 26.0079L11.5814 26.0647L11.538 26.1248L13.1592 27.296ZM13.4414 26.2459H11.4414V26.4034L11.466 26.5589L13.4414 26.2459ZM13.4414 15.6629L11.4494 15.4841L11.4414 15.5733V15.6629H13.4414ZM13.1763 14.8798L11.5588 16.0561L11.6394 16.1669L11.7343 16.2657L13.1763 14.8798ZM11.218 12.1872H9.21801V12.8375L9.60052 13.3635L11.218 12.1872ZM11.218 11.7852V9.78516H9.21801V11.7852H11.218ZM17.3054 11.7852L19.1624 11.0426L18.6597 9.78516H17.3054V11.7852ZM22.0107 23.5533L20.1536 24.2958L22.1311 29.2414L23.8975 24.2166L22.0107 23.5533ZM26.1477 11.7852V9.78516H24.7308L24.2609 11.1219L26.1477 11.7852ZM31.9529 11.7852H33.9529V9.78516H31.9529V11.7852ZM2.95288 18.7852C2.95288 9.9486 10.1163 2.78516 18.9529 2.78516V-1.21484C7.90719 -1.21484 -1.04712 7.73946 -1.04712 18.7852H2.95288ZM2.95288 23.7852V18.7852H-1.04712V23.7852H2.95288ZM18.9529 39.7852C10.1163 39.7852 2.95288 32.6217 2.95288 23.7852H-1.04712C-1.04712 34.8308 7.90719 43.7852 18.9529 43.7852V39.7852ZM23.9529 39.7852H18.9529V43.7852H23.9529V39.7852ZM39.9529 23.7852C39.9529 32.6217 32.7894 39.7852 23.9529 39.7852V43.7852C34.9986 43.7852 43.9529 34.8308 43.9529 23.7852H39.9529ZM39.9529 18.7852V23.7852H43.9529V18.7852H39.9529ZM23.9529 2.78516C32.7894 2.78516 39.9529 9.9486 39.9529 18.7852H43.9529C43.9529 7.73946 34.9986 -1.21484 23.9529 -1.21484V2.78516ZM18.9529 2.78516H23.9529V-1.21484H18.9529V2.78516ZM31.7523 15.3675L33.4284 13.5359L30.4774 10.8355L28.8013 12.6671L31.7523 15.3675ZM32.0695 14.2816C32.1239 14.6806 32.0033 15.1704 31.5807 15.5338L28.9729 12.5008C28.2642 13.1101 27.9967 14.017 28.1061 14.821L32.0695 14.2816ZM32.0878 28.0175V14.5513H28.0878V28.0175H32.0878ZM31.5794 27.035C31.9949 27.3923 32.1295 27.8859 32.066 28.3124L28.1097 27.7226C27.9857 28.5542 28.27 29.4648 28.9716 30.068L31.5794 27.035ZM33.4035 29.0505L31.7668 27.2189L28.7842 29.8842L30.4209 31.7158L33.4035 29.0505ZM33.9122 30.7852V30.3831H29.9122V30.7852H33.9122ZM23.6763 32.7852H31.9122V28.7852H23.6763V32.7852ZM21.6763 30.3831V30.7852H25.6763V30.3831H21.6763ZM23.8918 27.1645L22.1934 29.0411L25.1591 31.7252L26.8575 29.8486L23.8918 27.1645ZM23.54 27.9725C23.54 28.0626 23.5394 28.0609 23.5402 28.0456C23.5417 28.0181 23.5488 27.8979 23.593 27.7396C23.6978 27.3639 23.9076 27.1463 23.8747 27.1836L26.8746 29.8294C27.007 29.6793 27.2995 29.3386 27.4457 28.8149C27.5571 28.4157 27.54 28.0061 27.54 27.9725H23.54ZM23.54 17.0909V27.9725H27.54V17.0909H23.54ZM22.712 31.4036L27.4304 17.7439L23.6496 16.4379L18.9312 30.0977L22.712 31.4036ZM20.1837 32.7507H20.8216V28.7507H20.1837V32.7507ZM12.8403 17.8365L18.3279 31.4962L22.0395 30.0051L16.552 16.3454L12.8403 17.8365ZM16.6961 26.2444V17.0909H12.6961V26.2444H16.6961ZM16.5151 25.9897C16.6654 26.1643 16.6984 26.3514 16.6806 26.4934L12.7117 25.9954C12.5967 26.9115 12.8555 27.8696 13.4835 28.5992L16.5151 25.9897ZM18.8251 29.1723L16.6201 26.1226L13.3786 28.4663L15.5836 31.516L18.8251 29.1723ZM19.2043 30.7462V30.3441H15.2043V30.7462H19.2043ZM10.9529 32.7462H17.2043V28.7462H10.9529V32.7462ZM8.95288 30.3501V30.7462H12.9529V30.3501H8.95288ZM11.538 26.1248L9.33166 29.179L12.5741 31.5213L14.7804 28.4671L11.538 26.1248ZM11.466 26.5589C11.4508 26.4629 11.4573 26.371 11.4803 26.2861C11.5031 26.202 11.5478 26.1046 11.6292 26.0079L14.6892 28.584C15.3084 27.8485 15.565 26.8684 15.4167 25.9329L11.466 26.5589ZM11.4414 15.6629V26.2459H15.4414V15.6629H11.4414ZM11.7343 16.2657C11.5036 16.0257 11.4265 15.739 11.4494 15.4841L15.4334 15.8416C15.5087 15.0017 15.2295 14.13 14.6182 13.4939L11.7343 16.2657ZM9.60052 13.3635L11.5588 16.0561L14.7937 13.7035L12.8355 11.0108L9.60052 13.3635ZM9.21801 11.7852V12.1872H13.218V11.7852H9.21801ZM17.3054 9.78516H11.218V13.7852H17.3054V9.78516ZM23.8678 22.8108L19.1624 11.0426L15.4483 12.5277L20.1536 24.2958L23.8678 22.8108ZM24.2609 11.1219L20.1239 22.89L23.8975 24.2166L28.0345 12.4485L24.2609 11.1219ZM31.9529 9.78516H26.1477V13.7852H31.9529V9.78516ZM33.9529 12.1857V11.7852H29.9529V12.1857H33.9529Z" fill="#E06841" mask="url(#path-1-inside-1)"/>
</svg>
